<?xml version="1.0" standalone="no"?><!DOCTYPE svg PUBLIC "-//W3C//DTD SVG 1.1//EN" "http://www.w3.org/Graphics/SVG/1.1/DTD/svg11.dtd"><svg t="1632124755525" class="icon" viewBox="0 0 1077 1024" version="1.1" xmlns="http://www.w3.org/2000/svg" p-id="1218" xmlns:xlink="http://www.w3.org/1999/xlink" width="210.3515625" height="200"><defs><style type="text/css"></style></defs><path d="M631.550975 1023.999825a43.663646 43.663646 0 0 1-34.930916-68.813906l97.631912-137.627812a43.314337 43.314337 0 0 1 34.930917-18.338731h120.162353a141.295558 141.295558 0 0 0 141.120904-141.120904v-429.650276A141.295558 141.295558 0 0 0 849.345241 87.327292H228.448196A141.120904 141.120904 0 0 0 87.327292 228.448196v429.650276a141.120904 141.120904 0 0 0 141.120904 141.120904h300.929848a43.663646 43.663646 0 1 1 0 87.327292H228.448196A228.797505 228.797505 0 0 1 0 658.098472v-429.650276A228.797505 228.797505 0 0 1 228.448196 0h620.897045a228.797505 228.797505 0 0 1 228.448196 228.448196v429.650276a228.797505 228.797505 0 0 1-228.448196 228.448196H751.014711l-83.834201 119.114426a43.488991 43.488991 0 0 1-35.629535 18.338731z" fill="#FF517F" p-id="1219"></path><path d="M286.084208 365.02808a74.053544 74.053544 0 1 0 74.053544 73.878889 73.878889 73.878889 0 0 0-74.053544-73.878889z" fill="#FF517F" p-id="1220"></path><path d="M545.970229 365.02808a74.053544 74.053544 0 1 0 74.053544 73.878889 74.053544 74.053544 0 0 0-74.053544-73.878889z" fill="#FF517F" opacity=".3" p-id="1221"></path><path d="M791.534574 365.02808a74.053544 74.053544 0 1 0 74.053544 73.878889 73.878889 73.878889 0 0 0-74.053544-73.878889z" fill="#FF517F" opacity=".3" p-id="1222"></path></svg>