<?xml version="1.0" standalone="no"?><!DOCTYPE svg PUBLIC "-//W3C//DTD SVG 1.1//EN" "http://www.w3.org/Graphics/SVG/1.1/DTD/svg11.dtd"><svg t="1632125826134" class="icon" viewBox="0 0 1024 1024" version="1.1" xmlns="http://www.w3.org/2000/svg" p-id="2403" xmlns:xlink="http://www.w3.org/1999/xlink" width="200" height="200"><defs><style type="text/css"></style></defs><path d="M572.717669 926.99131h-102.068495a48.678821 48.678821 0 0 0-48.504345 48.504345 48.678821 48.678821 0 0 0 48.504345 48.504345h102.068495a48.678821 48.678821 0 0 0 48.504345-48.504345 48.678821 48.678821 0 0 0-48.504345-48.504345zM883.285057 789.155222H140.714943a48.504345 48.504345 0 0 0 0 97.00869h742.570114a48.504345 48.504345 0 0 0 0-97.00869z" fill="#FF517F" p-id="2404"></path><path d="M883.285057 789.155222H140.714943a48.504345 48.504345 0 0 0 0 97.00869h742.570114a48.504345 48.504345 0 0 0 0-97.00869z" fill="#FF517F" p-id="2405"></path><path d="M798.315216 446.309763a43.793491 43.793491 0 0 0-43.095587 43.619015v332.551372a43.793491 43.793491 0 0 0 87.23803 0V489.928778a43.793491 43.793491 0 0 0-43.793491-43.619015zM214.343841 446.309763a43.793491 43.793491 0 0 0-43.793492 43.619015v332.551372a43.793491 43.793491 0 0 0 87.238031 0V489.928778A43.793491 43.793491 0 0 0 214.343841 446.309763z" fill="#FF517F" p-id="2406"></path><path d="M605.344692 328.014994a61.590049 61.590049 0 1 0 61.59005 61.590049 61.590049 61.590049 0 0 0-61.59005-61.590049z" fill="#FF517F" opacity=".3" p-id="2407"></path><path d="M798.315216 563.732152a43.444539 43.444539 0 0 1-43.619016-43.619015v-67.696712A239.555631 239.555631 0 0 0 516.187425 212.337366a43.619015 43.619015 0 0 1-43.619015-43.619015V43.619015a43.619015 43.619015 0 0 1 87.238031 0v84.446414A327.142614 327.142614 0 0 1 842.457659 452.416425v67.696712a43.444539 43.444539 0 0 1-44.142443 43.619015zM214.343841 563.208724a43.619015 43.619015 0 0 1-43.619016-43.619015v-67.173284A329.236326 329.236326 0 0 1 381.317431 146.559891a43.619015 43.619015 0 1 1 31.231214 81.48032A241.474868 241.474868 0 0 0 257.962856 452.416425v67.173284a43.619015 43.619015 0 0 1-43.619015 43.619015z" fill="#FF517F" p-id="2408"></path></svg>